# xmcd CD database file
#
# Track frame offsets:
#	150
#	10958
#	26995
#	56701
#	73463
#	87169
#	108409
#	122733
#	138596
#	156973
#	170125
#	189585
#	213321
#	233600
#	256343
#
# Disc length: 3663 seconds
#
# Revision: 0
# Processed by: cddbd v1.5.2PL0 Copyright (c) Steve Scherf et al.
# Submitted via: CDex 1.51
#
DISCID=de0e4d0f
DTITLE=Various Artist - Warner Jazz
DYEAR=1900
DGENRE=Jazz
TTITLE0=Cher - For What It's Worth
TTITLE1=The Stovall Sisters - Hang On In There
TTITLE2=Gary Burton - Vibrafinger
TTITLE3=Young-Holt Unlimited - Wah Wah Man
TTITLE4=Clarence Reid - It Was Good Enough For Daddy
TTITLE5=Clarence Wheeler and The Enforcers - Right On
TTITLE6=Freedom Sounds - Brother John Henry
TTITLE7=Louie Ramirez and His Orchesrta - Tunbando Cana
TTITLE8=Shorty Rogers and His Giants - Samba Do Empashgi
TTITLE9=Mongo Santamaria - Featherbed Lane
TTITLE10=Airto Moreira - Celebration Suite
TTITLE11=Duke Pearson - The Fakir
TTITLE12=Herbie Mann - Dance Of The Semites
TTITLE13=Grover Washington Jr - Just The Two Of Us
TTITLE14=Take 6 - Takin' It To The Streets
EXTD=
EXTT0=
EXTT1=
EXTT2=
EXTT3=
EXTT4=
EXTT5=
EXTT6=
EXTT7=
EXTT8=
EXTT9=
EXTT10=
EXTT11=
EXTT12=
EXTT13=
EXTT14=
PLAYORDER=
